OpenSim_Sub04_CSBaseline_LCS.mot
version=1
nRows=64
nColumns=11
inDegrees=no
endheader
time	Bot_Shank	2nd_Bot_Shank	2nd_Top_Shank	Top_Shank	Bot_Thigh	Med_Thigh	Top_Thigh	BNOx	BNOy	BNOZ
0	10111.77097275	10593.84544704	11045.34614359	11017.22000600	13145.12032832	14144.19085046	14934.02398267	214.75147061	-78.02645493	141.49715426
0.01000000	10112.86910104	10594.19752015	11047.52354891	11017.98997744	13145.87107634	14144.20113637	14934.50040461	214.74287818	-78.02948546	141.45610953
0.02000000	10114.01496919	10594.50707024	11049.47967348	11018.70125862	13146.57828313	14144.19007136	14935.15279891	214.73292943	-78.03383008	141.41652786
0.03000000	10115.15249449	10594.75675850	11051.12292793	11019.30913458	13147.20355315	14144.15230974	14935.99107205	214.72070128	-78.04031281	141.37800009
0.04000000	10116.22559421	10594.92924609	11052.36172291	11019.76889036	13147.70849087	14144.08250585	14937.02513056	214.70527063	-78.04975766	141.34011710
0.05000000	10117.17824527	10595.00726566	11053.10472519	11020.03594402	13148.05477885	14143.97534124	14938.26473867	214.68571583	-78.06298648	141.30247316
0.06000000	10117.96706170	10594.98869889	11053.31490929	11020.09391423	13148.22065219	14143.83127201	14939.68950058	214.66141966	-78.08036229	141.26538787
0.07000000	10118.57685273	10594.90522696	11053.07641731	11019.98933898	13148.22127698	14143.66363795	14941.21172947	214.63244412	-78.10122444	141.23079909
0.08000000	10118.99624256	10594.79310436	11052.48978618	11019.77726963	13148.07681627	14143.48752211	14942.73463361	214.59894311	-78.12477374	141.20086364
0.09000000	10119.21385540	10594.68858558	11051.65555278	11019.51275757	13147.80743314	14143.31800753	14944.16142126	214.56107056	-78.15021103	141.17773834
0.10000000	10119.21831545	10594.62792508	11050.67425404	11019.25085417	13147.43329066	14143.17017727	14945.39530068	214.51898036	-78.17673711	141.16358003
0.11000000	10118.99824692	10594.64737737	11049.64642684	11019.04661080	13146.97455189	14143.05911437	14946.33948013	214.47282642	-78.20355283	141.16054553
0.12000000	10118.54227401	10594.78319692	11048.67260810	11018.95507883	13146.45137991	14142.99990189	14946.89716788	214.42276266	-78.22985899	141.17079166
0.13000000	10117.83915019	10595.07150851	11047.85317106	11019.03118365	13145.88387072	14143.00757564	14946.97178330	214.36894498	-78.25485803	141.19646928
0.14000000	10116.90503061	10595.52094074	11047.25379127	11019.30313849	13145.27790214	14143.08716037	14946.51150256	214.31195443	-78.27809122	141.23846608
0.15000000	10115.81720732	10596.07877451	11046.86272922	11019.73955830	13144.60762933	14143.22134481	14945.56436011	214.25332056	-78.29985592	141.29485140
0.16000000	10114.66124456	10596.68399003	11046.65777062	11020.30099398	13143.84291519	14143.38979546	14944.19190188	214.19470126	-78.32055176	141.36331323
0.17000000	10113.52270657	10597.27556747	11046.61670119	11020.94799645	13142.95362260	14143.57217883	14942.45567380	214.13775442	-78.34057837	141.44153958
0.18000000	10112.48715759	10597.79248702	11046.71730665	11021.64111659	13141.90961445	14143.74816142	14940.41722181	214.08413792	-78.36033541	141.52721845
0.19000000	10111.64016187	10598.17372887	11046.93737270	11022.34090533	13140.68075362	14143.89740974	14938.13809183	214.03550968	-78.38022250	141.61803785
0.20000000	10111.06728364	10598.35827320	11047.25468506	11023.00791356	13139.23690302	14143.99959029	14935.67982981	213.99352756	-78.40063929	141.71168576
0.21000000	10110.85408716	10598.28510020	11047.64702944	11023.60269220	13137.54792551	14144.03436958	14933.10398166	213.95984947	-78.42198542	141.80585021
0.22000000	10111.08587696	10597.89338543	11048.09219341	11024.08589670	13135.58387348	14143.98147367	14930.47210998	213.93612747	-78.44466032	141.89822819
0.23000000	10111.79290152	10597.16372482	11048.56835783	11024.44034909	13133.35497003	14143.83325404	14927.84930886	213.92277733	-78.46902071	141.98842721
0.24000000	10112.88257188	10596.16912864	11049.05458099	11024.69832791	13130.96106450	14143.61023111	14925.30855159	213.91745656	-78.49532795	142.08031729
0.25000000	10114.24567843	10594.99511139	11049.53003994	11024.89880352	13128.51413324	14143.33673677	14922.92387760	213.91744944	-78.52383051	142.17834522
0.26000000	10115.77301151	10593.72718758	11049.97391171	11025.08074623	13126.12615258	14143.03710291	14920.76932630	213.92004024	-78.55477688	142.28695778
0.27000000	10117.35536149	10592.45087174	11050.36537334	11025.28312640	13123.90909888	14142.73566140	14918.91893712	213.92251325	-78.58841551	142.41060174
0.28000000	10118.88351874	10591.25167837	11050.68360186	11025.54491435	13121.97494847	14142.45674412	14917.44674947	213.92215274	-78.62499489	142.55372390
0.29000000	10120.24827361	10590.21512199	11050.90777430	11025.90508044	13120.43567772	14142.22468297	14916.42680276	213.91624300	-78.66476348	142.72077102
0.30000000	10121.34041647	10589.42671711	11051.01706770	11026.40259498	13119.40326296	14142.06380981	14915.93313642	213.90206830	-78.70796976	142.91618990
0.31000000	10122.05076762	10588.97195324	11050.99066665	11027.07641038	13118.98964023	14141.99844898	14916.03975531	213.87691371	-78.75486204	143.14442535
0.32000000	10122.30989405	10588.90312921	11050.81778039	11027.94165130	13119.25325567	14142.04291212	14916.77481506	213.83909866	-78.80547209	143.40732770
0.33000000	10122.16646447	10589.17392235	11050.51740505	11028.94264164	13120.09361747	14142.18175947	14918.03023652	213.79001603	-78.85918828	143.69903802
0.34000000	10121.69098282	10589.71977636	11050.11404388	11030.01061533	13121.38084864	14142.39405068	14919.67275285	213.73162700	-78.91528003	144.01227207
0.35000000	10120.95395304	10590.47613496	11049.63220016	11031.07680629	13122.98507217	14142.65884543	14921.56909718	213.66589270	-78.97301677	144.33974561
0.36000000	10120.02587904	10591.37844185	11049.09637714	11032.07244844	13124.77641108	14142.95520338	14923.58600267	213.59477427	-79.03166791	144.67417440
0.37000000	10118.97726477	10592.36214075	11048.53107808	11032.92877570	13126.62498837	14143.26218420	14925.59020245	213.52023287	-79.09050287	145.00827421
0.38000000	10117.87861415	10593.36267536	11047.96080625	11033.57702200	13128.40092705	14143.55884755	14927.44842966	213.44422964	-79.14879108	145.33476079
0.39000000	10116.80043112	10594.31548940	11047.41006492	11033.94842126	13129.97435012	14143.82425309	14929.02741747	213.36872573	-79.20580194	145.64634990
0.40000000	10115.81315058	10595.15614647	11046.90337839	11033.97446642	13131.21576657	14144.03750045	14930.19425855	213.29567782	-79.26080656	145.93578513
0.41000000	10114.97257385	10595.84562629	11046.46973437	11033.64156135	13132.07751210	14144.18615941	14930.89227093	213.22609574	-79.31342961	146.20170897
0.42000000	10114.30185278	10596.40161530	11046.14807892	11033.05862347	13132.69448867	14144.27669784	14931.23484141	213.15887679	-79.36408477	146.45592521
0.43000000	10113.81972155	10596.84947274	11045.97870555	11032.35114709	13133.22630066	14144.31814063	14931.35836817	213.09263244	-79.41329243	146.71201840
0.44000000	10113.54491431	10597.21455785	11046.00190777	11031.64462652	13133.83255241	14144.31951268	14931.39924943	213.02597415	-79.46157299	146.98357312
0.45000000	10113.49616525	10597.52222986	11046.25797908	11031.06455607	13134.67284831	14144.28983889	14931.49388338	212.95751338	-79.50944686	147.28417394
0.46000000	10113.69220853	10597.79784803	11046.78721300	11030.73643005	13135.90679272	14144.23814414	14931.77866824	212.88586159	-79.55743444	147.62740543
0.47000000	10114.15177832	10598.06677158	11047.62990304	11030.78574277	13137.69398999	14144.17345334	14932.39000219	212.80963025	-79.60605613	148.02685217
0.48000000	10114.89360878	10598.35435975	11048.82634270	11031.33798853	13140.19404450	14144.10479138	14933.46428345	212.72743081	-79.65583233	148.49609872
0.49000000	10115.93643410	10598.68597178	11050.41682548	11032.51866164	13143.56656062	14144.04118316	14935.13791022	212.63787473	-79.70728345	149.04872966
0.50000000	10117.29896765	10599.08697149	11052.44165588	11034.45317825	13147.97046328	14143.99163651	14937.54678330	212.53958018	-79.76092603	149.69827810
0.51000000	10118.99551778	10599.58369254	11054.94346630	11037.25038298	13153.42063905	14143.96154211	14940.72135375	212.43258369	-79.81645680	150.44736957
0.52000000	10121.03056462	10600.20463248	11057.97008300	11040.98214725	13159.61060586	14143.94822036	14944.45680036	212.32008643	-79.87174347	151.27429326
0.53000000	10123.40725844	10600.97858164	11061.57003501	11045.71533974	13166.19039838	14143.94789965	14948.51646804	212.20571778	-79.92440625	152.15404552
0.54000000	10126.12874954	10601.93433036	11065.79185135	11051.51682914	13172.81005126	14143.95680839	14952.66370168	212.09310709	-79.97206535	153.06162268
0.55000000	10129.19818821	10603.10066896	11070.68406107	11058.45348412	13179.11959914	14143.97117500	14956.66184620	211.98588372	-80.01234098	153.97202109
0.56000000	10132.61872474	10604.50638777	11076.29519319	11066.59217339	13184.76907670	14143.98722787	14960.27424649	211.88767706	-80.04285335	154.86023709
0.57000000	10136.39350329	10606.18027519	11082.67374341	11075.99970391	13189.40861247	14144.00119621	14963.26430582	211.80211535	-80.06122329	155.70127434
0.58000000	10140.51753050	10608.14854054	11089.82397092	11086.66099789	13192.81293533	14144.01034416	14965.47287564	211.73137082	-80.06589144	156.47985358
0.59000000	10144.96163356	10610.42972978	11097.61869215	11098.31766807	13195.12700708	14144.01501121	14966.97093412	211.67328918	-80.05773434	157.20956853
0.60000000	10149.69216923	10613.04097205	11105.90642181	11110.66634302	13196.56423987	14144.01610539	14967.87200631	211.62491628	-80.03807894	157.90935108
0.61000000	10154.67549427	10615.99939648	11114.53567459	11123.40365128	13197.33804586	14144.01453474	14968.28961725	211.58329793	-80.00825214	158.59813311
0.62000000	10159.87796545	10619.32213221	11123.35496520	11136.22622142	13197.66183722	14144.01120732	14968.33729202	211.54547997	-79.96958088	159.29484651
0.63000000	10165.26593952	10623.02630837	11132.21280832	11148.83068201	13197.74902610	14144.00703116	14968.12855566	211.50850822	-79.92339209	160.01842316
